<?xml version="1.0" encoding="UTF-8" standalone="no"?>
<!-- Created with Inkscape (http://www.inkscape.org/) -->

<svg
   width="210mm"
   height="297mm"
   viewBox="0 0 210 297"
   version="1.1"
   id="svg5"
   xml:space="preserve"
   inkscape:version="1.2.1 (9c6d41e410, 2022-07-14)"
   sodipodi:docname="hoja.svg"
   xmlns:inkscape="http://www.inkscape.org/namespaces/inkscape"
   xmlns:sodipodi="http://sodipodi.sourceforge.net/DTD/sodipodi-0.dtd"
   xmlns="http://www.w3.org/2000/svg"
   xmlns:svg="http://www.w3.org/2000/svg"><sodipodi:namedview
     id="namedview7"
     pagecolor="#505050"
     bordercolor="#ffffff"
     borderopacity="1"
     inkscape:showpageshadow="0"
     inkscape:pageopacity="0"
     inkscape:pagecheckerboard="1"
     inkscape:deskcolor="#505050"
     inkscape:document-units="mm"
     showgrid="false"
     inkscape:zoom="0.25323113"
     inkscape:cx="2073.2048"
     inkscape:cy="412.66648"
     inkscape:window-width="1920"
     inkscape:window-height="991"
     inkscape:window-x="-9"
     inkscape:window-y="-9"
     inkscape:window-maximized="1"
     inkscape:current-layer="svg5"><inkscape:page
       x="0"
       y="0"
       width="210"
       height="297"
       id="page1619" /><inkscape:page
       x="220"
       y="0"
       width="282.22226"
       height="282.22226"
       id="page1621" /></sodipodi:namedview><defs
     id="defs2"><clipPath
       clipPathUnits="userSpaceOnUse"
       id="clipPath1065"><path
         d="M 0,800 H 800 V 0 H 0 Z"
         id="path1063" /></clipPath><clipPath
       clipPathUnits="userSpaceOnUse"
       id="clipPath1073"><path
         d="M 0,800 H 800 V 0 H 0 Z"
         id="path1071" /></clipPath><clipPath
       clipPathUnits="userSpaceOnUse"
       id="clipPath1077"><path
         d="M 800,0 H 0 v 800 h 800 z"
         id="path1075" /></clipPath><radialGradient
       fx="0"
       fy="0"
       cx="0"
       cy="0"
       r="1"
       gradientUnits="userSpaceOnUse"
       gradientTransform="matrix(-123.44486,861.29211,856.98047,122.8269,462.50879,2.9150391)"
       spreadMethod="pad"
       id="radialGradient1089"><stop
         style="stop-opacity:1;stop-color:#ffffff"
         offset="0"
         id="stop1079" /><stop
         style="stop-opacity:1;stop-color:#ffffff"
         offset="0.61973339"
         id="stop1081" /><stop
         style="stop-opacity:1;stop-color:#d9d9d9"
         offset="0.897561"
         id="stop1083" /><stop
         style="stop-opacity:1;stop-color:#d9d9d9"
         offset="0.90006244"
         id="stop1085" /><stop
         style="stop-opacity:1;stop-color:#b1b1b1"
         offset="1"
         id="stop1087" /></radialGradient><clipPath
       clipPathUnits="userSpaceOnUse"
       id="clipPath1111"><path
         d="M 279.378,34.0635 H 520.622 V 10.9912 H 279.378 Z"
         id="path1109" /></clipPath><clipPath
       clipPathUnits="userSpaceOnUse"
       id="clipPath1247"><path
         d="M 87.5049,202 H 712.495 V 96.623 H 87.5049 Z"
         id="path1245" /></clipPath><clipPath
       clipPathUnits="userSpaceOnUse"
       id="clipPath1251"><path
         d="m 712.495,149.309 c 0,-29.094 -139.911,-52.686 -312.494,-52.686 -172.588,0 -312.496,23.592 -312.496,52.686 0,29.101 139.908,52.691 312.496,52.691 172.583,0 312.494,-23.59 312.494,-52.691"
         id="path1249" /></clipPath><clipPath
       clipPathUnits="userSpaceOnUse"
       id="clipPath1255"><path
         d="M -32768,32767 H 32767 V -32768 H -32768 Z"
         id="path1253" /></clipPath><radialGradient
       fx="0"
       fy="0"
       cx="0"
       cy="0"
       r="1"
       gradientUnits="userSpaceOnUse"
       gradientTransform="matrix(297.71075,0,0,-34.450931,400,149.3125)"
       spreadMethod="pad"
       id="radialGradient1263"><stop
         style="stop-opacity:1;stop-color:#ffffff"
         offset="0"
         id="stop1257" /><stop
         style="stop-opacity:1;stop-color:#ffffff"
         offset="0.06198409"
         id="stop1259" /><stop
         style="stop-opacity:0;stop-color:#ffffff"
         offset="1"
         id="stop1261" /></radialGradient><mask
       maskUnits="userSpaceOnUse"
       x="0"
       y="0"
       width="1"
       height="1"
       id="mask1265"><g
         id="g1275"><g
           clip-path="url(#clipPath1255)"
           id="g1273"><g
             id="g1271"><g
               id="g1269"><path
                 d="M -32768,32767 H 32767 V -32768 H -32768 Z"
                 style="fill:url(#radialGradient1263);stroke:none"
                 id="path1267" /></g></g></g></g></mask><radialGradient
       fx="0"
       fy="0"
       cx="0"
       cy="0"
       r="1"
       gradientUnits="userSpaceOnUse"
       gradientTransform="matrix(297.71075,0,0,-34.450931,400,149.3125)"
       spreadMethod="pad"
       id="radialGradient1283"><stop
         style="stop-opacity:1;stop-color:#4d4d4c"
         offset="0"
         id="stop1277" /><stop
         style="stop-opacity:1;stop-color:#4d4d4c"
         offset="0.06198409"
         id="stop1279" /><stop
         style="stop-opacity:1;stop-color:#f5f5f5"
         offset="1"
         id="stop1281" /></radialGradient><clipPath
       clipPathUnits="userSpaceOnUse"
       id="clipPath1309"><path
         d="M 354.469,800 V 691.1 l 45.577,24.853 0.64,0.352 0.64,-0.358 44.205,-24.813 V 800 Z"
         id="path1307" /></clipPath><linearGradient
       x1="0"
       y1="0"
       x2="1"
       y2="0"
       gradientUnits="userSpaceOnUse"
       gradientTransform="matrix(-4.8e-6,108.8999,108.8999,4.8e-6,400.00049,691.1001)"
       spreadMethod="pad"
       id="linearGradient1319"><stop
         style="stop-opacity:1;stop-color:#8bc540"
         offset="0"
         id="stop1315" /><stop
         style="stop-opacity:1;stop-color:#0ea89c"
         offset="1"
         id="stop1317" /></linearGradient><clipPath
       clipPathUnits="userSpaceOnUse"
       id="clipPath1329"><path
         d="M 0,800 H 800 V 0 H 0 Z"
         id="path1327" /></clipPath><clipPath
       clipPathUnits="userSpaceOnUse"
       id="clipPath1345"><path
         d="M 0,800 H 800 V 0 H 0 Z"
         id="path1343" /></clipPath><clipPath
       clipPathUnits="userSpaceOnUse"
       id="clipPath1357"><path
         d="m 416.684,373.928 c -3.584,33.236 29.636,91.34 29.636,91.34 v 0 c -12.398,-26.71 -15.013,-92.27 -15.013,-92.27 v 0 c 110.498,69.077 24.144,170.753 24.144,170.753 v 0 c -94.327,-88.1 -38.767,-169.823 -38.767,-169.823"
         id="path1355" /></clipPath><linearGradient
       x1="0"
       y1="0"
       x2="1"
       y2="0"
       gradientUnits="userSpaceOnUse"
       gradientTransform="matrix(-18.196012,-246.96861,-246.96861,18.196012,452.70898,565.94531)"
       spreadMethod="pad"
       id="linearGradient1367"><stop
         style="stop-opacity:1;stop-color:#8bc540"
         offset="0"
         id="stop1363" /><stop
         style="stop-opacity:1;stop-color:#0ea89c"
         offset="1"
         id="stop1365" /></linearGradient><clipPath
       clipPathUnits="userSpaceOnUse"
       id="clipPath1377"><path
         d="m 454.213,366.052 c 21.6,16.012 75.504,16.615 75.504,16.615 v 0 c -23.592,-2.277 -70.198,-27.14 -70.198,-27.14 v 0 c 92.983,-48.619 128.419,52.764 128.419,52.764 v 0 c -17.029,5.067 -32.137,7.168 -45.495,7.167 v 0 c -64.773,-0.003 -88.23,-49.406 -88.23,-49.406"
         id="path1375" /></clipPath><linearGradient
       x1="0"
       y1="0"
       x2="1"
       y2="0"
       gradientUnits="userSpaceOnUse"
       gradientTransform="matrix(9.18293,-227.02602,-227.02602,-9.18293,514.06641,560.43799)"
       spreadMethod="pad"
       id="linearGradient1387"><stop
         style="stop-opacity:1;stop-color:#8bc540"
         offset="0"
         id="stop1383" /><stop
         style="stop-opacity:1;stop-color:#0ea89c"
         offset="1"
         id="stop1385" /></linearGradient><clipPath
       clipPathUnits="userSpaceOnUse"
       id="clipPath1397"><path
         d="m 212.063,393.939 c 72.721,-75.458 138.36,-29.314 138.36,-29.314 v 0 c -26.935,-3.332 -74.528,22.9 -74.528,22.9 v 0 c 21.841,-9.727 75.1,-11.017 75.1,-11.017 v 0 c -22.048,34.07 -47.613,44.57 -70.763,44.568 v 0 c -37.209,-0.004 -68.169,-27.137 -68.169,-27.137"
         id="path1395" /></clipPath><linearGradient
       x1="0"
       y1="0"
       x2="1"
       y2="0"
       gradientUnits="userSpaceOnUse"
       gradientTransform="matrix(49.537106,-221.74721,-221.74721,-49.537106,253.00391,512.90967)"
       spreadMethod="pad"
       id="linearGradient1407"><stop
         style="stop-opacity:1;stop-color:#8bc540"
         offset="0"
         id="stop1403" /><stop
         style="stop-opacity:1;stop-color:#0ea89c"
         offset="1"
         id="stop1405" /></linearGradient><clipPath
       clipPathUnits="userSpaceOnUse"
       id="clipPath1417"><path
         d="m 366.901,386.306 c -20.745,22.156 -28.386,82.534 -28.386,82.534 v 0 c 5.6,-26.167 39.504,-75.221 39.504,-75.221 v 0 c 42.52,110.561 -75.762,137.208 -75.762,137.208 v 0 C 281.88,415.291 366.901,386.306 366.901,386.306"
         id="path1415" /></clipPath><linearGradient
       x1="0"
       y1="0"
       x2="1"
       y2="0"
       gradientUnits="userSpaceOnUse"
       gradientTransform="matrix(121.57217,-263.14545,-263.14545,-121.57217,294.26172,567.23438)"
       spreadMethod="pad"
       id="linearGradient1427"><stop
         style="stop-opacity:1;stop-color:#8bc540"
         offset="0"
         id="stop1423" /><stop
         style="stop-opacity:1;stop-color:#0ea89c"
         offset="1"
         id="stop1425" /></linearGradient><clipPath
       clipPathUnits="userSpaceOnUse"
       id="clipPath1437"><path
         d="m 500.236,432.437 c 7.791,16.333 39.651,33.696 39.651,33.696 v 0 c -13.309,-8.795 -33.176,-38.28 -33.176,-38.28 v 0 c 70.621,0.424 59.708,71.88 59.708,71.88 v 0 c -68.57,-13.797 -66.183,-67.296 -66.183,-67.296"
         id="path1435" /></clipPath><linearGradient
       x1="0"
       y1="0"
       x2="1"
       y2="0"
       gradientUnits="userSpaceOnUse"
       gradientTransform="matrix(77.072296,-132.08211,-132.08211,-77.072296,474.50586,566.88916)"
       spreadMethod="pad"
       id="linearGradient1447"><stop
         style="stop-opacity:1;stop-color:#8bc540"
         offset="0"
         id="stop1443" /><stop
         style="stop-opacity:1;stop-color:#0ea89c"
         offset="1"
         id="stop1445" /></linearGradient><clipPath
       clipPathUnits="userSpaceOnUse"
       id="clipPath1457"><path
         d="m 219.531,485.345 c 20.163,-62.917 70.133,-55.06 70.133,-55.06 v 0 c -16.166,5.604 -35.801,33.68 -35.801,33.68 v 0 c 9.654,-11.576 39.43,-27.117 39.43,-27.117 v 0 c -5.094,43.135 -34.824,50.658 -54.95,50.658 v 0 c -10.784,-10e-4 -18.812,-2.161 -18.812,-2.161"
         id="path1455" /></clipPath><linearGradient
       x1="0"
       y1="0"
       x2="1"
       y2="0"
       gradientUnits="userSpaceOnUse"
       gradientTransform="matrix(-33.636932,-139.23625,-139.23625,33.636932,275.78027,541.27148)"
       spreadMethod="pad"
       id="linearGradient1467"><stop
         style="stop-opacity:1;stop-color:#8bc540"
         offset="0"
         id="stop1463" /><stop
         style="stop-opacity:1;stop-color:#0ea89c"
         offset="1"
         id="stop1465" /></linearGradient><clipPath
       clipPathUnits="userSpaceOnUse"
       id="clipPath1477"><path
         d="m 387.412,494.2 c -5.098,18.884 8.823,55.55 8.823,55.55 v 0 c -4.731,-16.584 -0.284,-54.754 -0.284,-54.754 v 0 c 57.646,50.042 -1.592,100.994 -1.592,100.994 v 0 C 347.807,536.416 387.412,494.2 387.412,494.2"
         id="path1475" /></clipPath><linearGradient
       x1="0"
       y1="0"
       x2="1"
       y2="0"
       gradientUnits="userSpaceOnUse"
       gradientTransform="matrix(-10.452418,-186.509,-186.509,10.452418,400.82764,619.12305)"
       spreadMethod="pad"
       id="linearGradient1487"><stop
         style="stop-opacity:1;stop-color:#8bc540"
         offset="0"
         id="stop1483" /><stop
         style="stop-opacity:1;stop-color:#0ea89c"
         offset="1"
         id="stop1485" /></linearGradient><clipPath
       clipPathUnits="userSpaceOnUse"
       id="clipPath1497"><path
         d="m 456.648,333.195 c 17.83,-3.084 43.161,-29.062 43.161,-29.062 v 0 c -12.067,10.434 -45.825,21.59 -45.825,21.59 v 0 c 19.502,-67.877 85.348,-38.051 85.348,-38.051 v 0 c -20.688,40.492 -49.421,47.576 -66.996,47.576 v 0 c -9.46,0 -15.688,-2.053 -15.688,-2.053"
         id="path1495" /></clipPath><linearGradient
       x1="0"
       y1="0"
       x2="1"
       y2="0"
       gradientUnits="userSpaceOnUse"
       gradientTransform="matrix(-106.33033,-109.91541,-109.91541,106.33033,579.1416,394.32129)"
       spreadMethod="pad"
       id="linearGradient1507"><stop
         style="stop-opacity:1;stop-color:#8bc540"
         offset="0"
         id="stop1503" /><stop
         style="stop-opacity:1;stop-color:#0ea89c"
         offset="1"
         id="stop1505" /></linearGradient><clipPath
       clipPathUnits="userSpaceOnUse"
       id="clipPath1517"><path
         d="m 261.095,285.887 c 71.913,-15.026 91.737,37.611 91.737,37.611 v 0 c -14.291,-12.559 -52.219,-16.14 -52.219,-16.14 v 0 c 16.493,2.984 47.862,23.251 47.862,23.251 v 0 c -11.194,4.714 -21.063,6.685 -29.745,6.684 v 0 c -44.332,-0.001 -57.635,-51.406 -57.635,-51.406"
         id="path1515" /></clipPath><linearGradient
       x1="0"
       y1="0"
       x2="1"
       y2="0"
       gradientUnits="userSpaceOnUse"
       gradientTransform="matrix(116.19044,-108.93842,-108.93842,-116.19044,237.88037,370.97656)"
       spreadMethod="pad"
       id="linearGradient1527"><stop
         style="stop-opacity:1;stop-color:#8bc540"
         offset="0"
         id="stop1523" /><stop
         style="stop-opacity:1;stop-color:#0ea89c"
         offset="1"
         id="stop1525" /></linearGradient></defs><g
     inkscape:label="Capa 1"
     inkscape:groupmode="layer"
     id="layer1" /><g
     id="g1323"
     transform="matrix(3.7858636,0,0,-5.3567962,-1410.6304,4185.2412)"
     style="fill:#f9f9f9"><g
       id="g1325"
       clip-path="url(#clipPath1329)"
       style="fill:#f9f9f9"><g
         id="g1331"
         transform="translate(400.5825,737.9502)"
         style="fill:#f9f9f9"><path
           d="m 0,0 c 0,0 -20.131,1.079 -22.774,27.278 0,0 27.175,1.452 24.732,-25.02 0,0 -10.318,8.526 -13.123,13.84 0,0 5.327,-12.574 11.165,-16.098"
           style="fill:#f9f9f9;fill-opacity:1;fill-rule:nonzero;stroke:none"
           id="path1333" /></g><g
         id="g1335"
         transform="translate(405.7422,739.1924)"
         style="fill:#f9f9f9"><path
           d="m 0,0 c 0,0 -6.28,16.539 13.807,27.957 0,0 10.811,-21.291 -11.301,-28.725 0,0 3.184,11.303 6.45,15.44 C 8.956,14.672 0.756,5.93 0,0"
           style="fill:#f9f9f9;fill-opacity:1;fill-rule:nonzero;stroke:none"
           id="path1337" /></g></g></g></svg>
